<?xml version="1.0" encoding="UTF-8"?>
<svg xmlns="http://www.w3.org/2000/svg" width="237" height="73" viewBox="0 0 2370 730" role="img" aria-labelledby="title">
  <title id="title">Microburbs primary logo</title>
  <rect width="2370" height="730" fill="#EDF2F9"/>
  <g transform="translate(170 190)">
    <path d="M0 0 C2.07 -0.01 4.138 -0.041 6.208 -0.072 C6.867 -0.075 6.867 -0.075 10.2 -0.088 C11.401 -0.097 12.602 -0.107 13.84 -0.116 C19.914 0.502 24.163 2.84 28.743 6.92 C31.126 8.889 33.76 10.39 36.403 11.982 C38.341 13.24 38.341 13.24 41.341 15.865 C43.994 17.966 45.327 18.695 48.403 19.678 C52.061 20.899 53.612 22.537 55.931 25.674 C58.701 28.751 62.447 30.9 66.341 32.24 C69.122 31.869 69.122 31.869 71.341 31.24 C73.995 24.893 73.694 18.528 73.731 11.764 C73.755 10.856 73.778 9.949 73.802 9.014 C73.81 8.193 73.818 7.372 73.827 6.527 C74.537 3.369 75.845 2.267 78.341 0.24 C80.99 -0.254 80.99 -0.254 84.04 -0.246 C85.185 -0.252 86.329 -0.258 87.509 -0.264 C88.125 -0.257 88.125 -0.257 91.243 -0.221 C91.878 -0.22 91.878 -0.22 95.091 -0.218 C97.777 -0.212 100.462 -0.198 103.148 -0.171 C106.582 -0.137 110.016 -0.13 113.451 -0.131 C116.736 -0.131 120.021 -0.113 123.306 -0.096 C124.536 -0.093 125.766 -0.091 127.034 -0.089 C128.182 -0.076 129.33 -0.063 130.512 -0.05 C131.52 -0.043 132.527 -0.035 133.565 -0.027 C136.578 0.263 138.681 0.791 141.341 2.24 C143.998 5.63 143.59 9.568 143.52 13.683 C143.516 14.427 143.511 15.171 143.507 15.937 C143.496 17.548 143.48 19.159 143.461 20.77 C143.43 23.322 143.414 25.873 143.401 28.425 C143.361 35.678 143.296 42.932 143.224 50.185 C143.182 54.624 143.154 59.064 143.134 63.504 C143.124 65.194 143.107 66.884 143.085 68.574 C143.054 70.939 143.041 73.303 143.032 75.668 C143.018 76.363 143.004 77.059 142.99 77.776 C142.998 82.097 143.659 84.824 146.341 88.24 C148.978 89.357 148.978 89.357 152.028 90.115 C157.305 91.681 160.561 93.576 164.427 97.459 C166.341 99.24 166.341 99.24 169.306 100.963 C173.187 103.875 174.575 106.831 176.528 111.178 C177.187 112.583 177.847 113.988 178.509 115.393 C178.817 116.058 179.126 116.723 179.444 117.408 C180.341 119.24 180.341 119.24 182.017 121.994 C184.78 126.681 184.487 131.495 184.481 136.805 C184.483 137.242 184.483 137.242 184.49 139.451 C184.499 142.382 184.5 145.313 184.502 148.244 C184.507 150.343 184.512 152.442 184.517 154.541 C184.53 160.248 184.537 165.954 184.541 171.661 C184.544 175.225 184.548 178.789 184.553 182.353 C184.566 193.501 184.576 204.648 184.58 215.796 C184.584 228.671 184.602 241.546 184.631 254.42 C184.652 264.369 184.662 274.317 184.664 284.265 C184.665 290.209 184.671 296.153 184.689 302.096 C184.705 307.686 184.707 313.275 184.698 318.865 C184.698 320.917 184.702 322.969 184.712 325.02 C184.725 327.821 184.719 330.621 184.708 333.421 C184.712 333.828 184.712 333.828 184.733 335.883 C184.667 343.372 181.924 347.97 176.903 353.49 C176.141 354.341 175.38 355.192 174.595 356.068 C170.792 359.732 168 360.49 162.756 360.495 C161.612 360.501 160.468 360.506 159.289 360.512 C158.032 360.509 156.775 360.505 155.479 360.501 C154.131 360.504 152.782 360.508 151.433 360.513 C147.724 360.523 144.014 360.521 140.304 360.516 C136.305 360.514 132.306 360.523 128.306 360.53 C120.47 360.543 112.633 360.545 104.797 360.543 C98.429 360.541 92.061 360.543 85.692 360.547 C84.787 360.547 83.881 360.548 82.948 360.549 C81.109 360.55 79.269 360.551 77.43 360.552 C60.17 360.563 42.911 360.561 25.652 360.555 C9.854 360.55 -5.943 360.561 -21.74 360.58 C-37.953 360.599 -54.165 360.608 -70.378 360.604 C-79.483 360.602 -88.588 360.604 -97.694 360.619 C-105.445 360.63 -113.196 360.632 -120.947 360.62 C-124.903 360.614 -128.859 360.613 -132.815 360.625 C-136.435 360.636 -140.055 360.633 -143.676 360.619 C-145.608 360.615 -147.541 360.625 -149.474 360.637 C-150.62 360.63 -151.767 360.622 -152.948 360.615 C-153.443 360.615 -153.443 360.615 -155.946 360.615 C-161.5 359.848 -165 356.194 -168.847 352.365 C-169.706 351.522 -170.566 350.679 -171.452 349.811 C-175.808 344.738 -175.95 339.96 -175.92 333.479 C-175.924 332.597 -175.928 331.715 -175.931 330.806 C-175.942 327.851 -175.938 324.895 -175.934 321.94 C-175.938 319.821 -175.943 317.702 -175.949 315.583 C-175.963 309.826 -175.963 304.07 -175.961 298.314 C-175.96 293.51 -175.965 288.707 -175.969 283.903 C-175.98 272.571 -175.981 261.239 -175.975 249.907 C-175.969 238.213 -175.981 226.519 -176.002 214.825 C-176.02 204.787 -176.026 194.75 -176.023 184.713 C-176.021 178.716 -176.024 172.72 -176.038 166.724 C-176.05 161.086 -176.048 155.448 -176.035 149.81 C-176.033 147.741 -176.035 145.671 -176.044 143.601 C-176.054 140.777 -176.046 137.953 -176.033 135.128 C-176.041 134.309 -176.048 133.489 -176.056 132.645 C-176.01 127.774 -175.323 124.474 -172.659 120.24 C-171.855 119.477 -171.05 118.714 -170.222 117.928 C-167.8 115.388 -166.948 113.897 -165.659 110.74 C-162.91 104.162 -159.06 101.313 -152.776 98.408 C-149.605 96.658 -147.125 94.281 -144.476 91.834 C-142.659 90.24 -142.659 90.24 -139.909 88.678 C-137.659 87.24 -137.659 87.24 -135.972 84.303 C-133.077 80.469 -130.597 79.855 -126.179 78.303 C-122.961 76.946 -120.888 75.046 -118.374 72.674 C-116.529 71.131 -114.792 70.27 -112.597 69.303 C-108.701 67.52 -106.76 65.171 -104.163 61.838 C-101.818 59.346 -98.786 58.514 -95.659 57.24 C-95.082 56.456 -94.504 55.673 -93.909 54.865 C-91.444 51.989 -89.854 51.304 -86.409 49.865 C-81.557 47.824 -78.228 45.401 -74.433 41.799 C-72.659 40.24 -72.659 40.24 -69.472 38.678 C-66.659 37.24 -66.659 37.24 -64.472 34.303 C-62.164 31.266 -59.949 30.454 -56.347 29.303 C-51.306 27.684 -48.226 25.546 -44.437 21.904 C-42.659 20.24 -42.659 20.24 -39.409 18.115 C-36.659 16.24 -36.659 16.24 -34.909 13.74 C-32.024 10.535 -29.192 9.787 -25.198 8.35 C-21.931 6.922 -19.671 4.974 -17.132 2.51 C-12.704 -1.308 -5.468 0.015 0 0 Z M63.778 107.428 C57.636 118.499 56.253 130.918 54.666 143.27 C54.341 145.24 54.341 145.24 53.341 148.24 C50.091 148.99 50.091 148.99 46.341 149.24 C44.216 147.615 44.216 147.615 42.341 145.24 C39.517 142.103 37.083 139.991 33.278 138.24 C28.917 136.216 26.499 133.556 24.341 129.24 C24.1 125.232 24.36 121.923 25.528 118.115 C26.341 114.24 26.341 114.24 25.091 111.303 C23.341 109.24 23.341 109.24 21.341 108.24 C16.798 108.149 12.256 108.386 7.716 108.553 C7.086 108.57 7.086 108.57 3.899 108.66 C-13.306 109.265 -13.306 109.265 -18.847 114.428 C-19.507 115.041 -20.167 115.655 -20.847 116.287 C-22.585 118.16 -23.956 120.04 -25.347 122.178 C-27.659 125.24 -27.659 125.24 -30.159 125.928 C-33.368 125.045 -35.194 123.439 -37.659 121.24 C-41.267 119.436 -44.885 120.092 -48.659 121.24 C-51.738 123.459 -54.153 126.155 -56.659 128.99 C-61.327 134.16 -65.444 138.107 -71.776 141.144 C-73.659 142.24 -73.659 142.24 -75.659 145.24 C-75.996 148.306 -76.101 151.347 -76.218 154.428 C-76.659 157.24 -76.659 157.24 -77.952 159.025 C-79.793 160.336 -81.382 161.004 -83.534 161.678 C-87.216 162.957 -89.66 164.727 -92.659 167.24 C-96.236 168.941 -99.221 169.495 -103.159 169.678 C-107.468 170.035 -110.325 170.287 -113.659 173.24 C-115.239 175.203 -116.723 177.205 -118.171 179.268 C-119.659 181.24 -119.659 181.24 -122.472 183.678 C-125.641 187.391 -125.554 190.482 -125.659 195.24 C-125.709 196.282 -125.76 197.323 -125.812 198.396 C-126.005 205.013 -126.006 211.349 -122.659 217.24 C-121.229 218.448 -119.793 219.654 -118.272 220.744 C-114.687 224.069 -112.803 228.913 -110.659 233.24 C-110.311 233.804 -109.964 234.369 -109.605 234.95 C-105.568 241.875 -106.169 248.851 -106.259 256.66 C-106.177 264.399 -106.177 264.399 -103.687 268.447 C-99.558 270.892 -96.37 270.908 -91.659 270.74 C-90.865 270.743 -90.071 270.745 -89.253 270.748 C-84.587 270.67 -81.385 270.294 -77.659 267.24 C-77.277 266.721 -77.277 266.721 -75.343 264.096 C-72.659 261.24 -72.659 261.24 -68.882 260.541 C-67.495 260.516 -66.108 260.521 -64.722 260.553 C-58.349 260.594 -53.72 259.877 -48.745 255.592 C-48.463 255.307 -48.463 255.307 -47.034 253.865 C-42.196 249.472 -36.73 247.46 -30.659 245.24 C-29.865 244.931 -29.071 244.621 -28.253 244.303 C-23.116 242.309 -18.795 241.083 -13.284 240.99 C-12.827 240.977 -12.827 240.977 -10.511 240.912 C-3.578 241.71 -0.116 245.635 4.091 250.678 C8.397 255.624 11.712 258.361 18.095 260.291 C21.617 261.779 23.446 264.416 25.759 267.373 C27.341 269.24 27.341 269.24 30.403 271.115 C33.482 273.343 34.448 274.861 36.278 278.115 C39.267 283.365 42.393 287.801 48.259 289.939 C49.704 290.279 51.164 290.561 52.63 290.799 C54.724 291.14 56.801 291.592 58.864 292.088 C67.047 294.005 73.258 294.546 81.341 292.24 C82.262 292.019 83.184 291.797 84.134 291.568 C91.691 289.606 91.691 289.606 94.341 285.24 C95.036 283.615 95.681 281.967 96.278 280.303 C97.815 276.3 99.569 273.532 102.341 270.24 C102.941 268.914 103.523 267.58 104.091 266.24 C106.027 262.136 108.462 260.489 112.438 258.443 C116.74 255.723 118.414 251.236 120.466 246.74 C120.984 245.616 121.502 244.492 122.036 243.334 C124.818 236.737 124.561 230.5 124.581 223.396 C124.591 221.313 124.622 219.231 124.653 217.148 C124.658 215.829 124.664 214.51 124.669 213.15 C124.674 212.548 124.674 212.548 124.697 209.498 C124.153 204.52 121.707 201.458 118.403 197.865 C115.939 195.061 114.098 192.267 112.337 188.986 C111.288 187.148 110.106 185.499 108.841 183.803 C107.006 181.329 105.703 178.933 104.466 176.115 C103.033 173.077 101.847 171.696 98.966 169.99 C94.417 167.149 92.838 162.842 90.7 158.08 C89.462 155.492 88.074 153.504 86.341 151.24 C84.939 147.034 85.01 142.878 84.817 138.467 C84.106 133.65 82.027 131.013 78.841 127.428 C75.624 123.09 75.115 118.056 74.329 112.839 C73.793 109.321 73.35 107.254 71.341 104.24 C67.414 103.073 65.934 104.274 63.778 107.428 Z M66.341 310.24 C64.175 313.706 63.054 316.308 63.403 320.365 C64.369 324.356 65.152 325.772 68.341 328.24 C71.423 327.348 72.971 326.857 74.653 324.053 C75.502 320.58 75.729 317.803 75.341 314.24 C73.653 311.803 73.653 311.803 71.341 310.24 C68.591 309.99 68.591 309.99 66.341 310.24 Z " fill="#1C77EF" transform="translate(235.6591796875,29.759765625)" />

    <path d="M0 0 C0.924 -0.007 1.847 -0.014 2.799 -0.021 C7.756 0.025 11.333 0.162 15.312 3.438 C16.557 4.906 17.8 6.377 18.984 7.895 C20.369 9.503 21.82 10.708 23.5 12 C27.233 15.236 28.147 17.704 28.613 22.594 C28.615 23.145 28.615 23.145 28.625 25.938 C28.642 27.041 28.659 28.144 28.676 29.281 C27.983 35.301 24.179 38.958 20.062 43.125 C19.15 44.078 18.237 45.03 17.297 46.012 C9.95 51.983 0.27 50.978 -8.688 50.438 C-15.793 49.512 -19.522 46.268 -23.957 40.754 C-24.528 39.989 -25.099 39.225 -25.688 38.438 C-26.145 37.869 -26.603 37.301 -27.074 36.715 C-30.713 31.519 -30.732 25.47 -29.688 19.438 C-28.122 16.025 -26.082 13.312 -23.688 10.438 C-23.281 9.861 -22.875 9.285 -22.457 8.691 C-16.744 0.873 -9.1 -0.199 0 0 Z " fill="#2C7BE5" transform="translate(791.6875,99.5625)" />

    <path d="M0 0 C0.831 -0.004 1.661 -0.009 2.517 -0.013 C4.27 -0.019 6.022 -0.019 7.775 -0.015 C10.459 -0.012 13.142 -0.035 15.826 -0.061 C17.53 -0.063 19.234 -0.064 20.938 -0.062 C21.741 -0.072 22.544 -0.081 23.371 -0.09 C28.894 -0.044 28.894 -0.044 31.369 1.636 C33.327 4.79 33.522 7.468 33.5 11.076 C33.497 12.044 33.493 13.012 33.49 14.009 C33.482 15.053 33.473 16.096 33.465 17.172 C33.461 18.246 33.457 19.32 33.453 20.426 C33.437 25.027 33.409 29.628 33.382 34.229 C33.364 37.585 33.352 40.941 33.34 44.297 C33.332 45.339 33.323 46.38 33.315 47.454 C33.311 48.425 33.308 49.396 33.305 50.396 C33.299 51.249 33.294 52.101 33.289 52.98 C33.399 55.222 33.775 57.151 34.402 59.301 C37.527 59.238 37.527 59.238 41.402 58.301 C42.186 57.249 42.97 56.197 43.777 55.113 C48.173 49.3 55.79 48.073 62.439 45.966 C65.522 44.921 68.389 43.505 71.25 41.965 C76.971 40.2 81.604 40.98 86.831 43.688 C87.432 44.014 88.033 44.34 88.652 44.676 C94.438 47.629 99.441 48.987 105.93 49.781 C109.79 50.592 111.156 52.125 113.402 55.301 C113.732 56.291 114.062 57.281 114.402 58.301 C115.165 58.59 115.929 58.878 116.715 59.176 C121.895 61.344 124.371 66.642 127.18 71.289 C128.226 73.011 129.339 74.692 130.465 76.363 C133.11 81.035 134.182 86.299 135.457 91.473 C136.028 93.785 136.629 96.09 137.285 98.379 C141.68 113.997 140.447 126.748 135.082 141.875 C133.945 145.933 133.565 150.102 133.125 154.285 C132.06 158.731 129.557 161.155 126.375 164.312 C124.265 166.439 122.603 168.695 120.84 171.113 C117.088 175.898 113.103 178.655 107.895 181.699 C104.592 183.821 102.717 186.165 100.402 189.301 C97.079 190.962 93.358 190.507 89.703 190.539 C88.835 190.547 87.966 190.555 87.072 190.564 C85.23 190.577 83.388 190.588 81.546 190.596 C78.743 190.613 75.941 190.657 73.139 190.701 C71.348 190.711 69.557 190.72 67.766 190.727 C67.349 190.735 67.349 190.735 65.243 190.78 C57.547 190.751 52.809 187.895 47.152 182.676 C41.332 177.344 41.332 177.344 37.715 177.176 C36.952 177.217 36.189 177.258 35.402 177.301 C35.221 177.988 35.039 178.675 34.852 179.383 C34.726 179.833 34.726 179.833 34.09 182.113 C33.968 182.56 33.968 182.56 33.352 184.82 C32.288 187.599 31.831 188.596 29.402 190.301 C26.601 190.599 24.028 190.721 21.227 190.699 C20.424 190.702 19.621 190.705 18.794 190.708 C17.095 190.71 15.396 190.704 13.698 190.692 C11.11 190.676 8.523 190.692 5.936 190.711 C4.283 190.709 2.63 190.705 0.977 190.699 C0.592 190.702 0.592 190.702 -1.354 190.718 C-6.142 190.656 -9.459 189.958 -13.598 187.301 C-16.071 183.591 -15.851 181.73 -15.858 177.299 C-15.862 176.582 -15.866 175.865 -15.87 175.126 C-15.88 172.717 -15.876 170.308 -15.872 167.899 C-15.877 166.174 -15.882 164.45 -15.888 162.725 C-15.901 158.035 -15.902 153.345 -15.899 148.655 C-15.898 144.741 -15.903 140.827 -15.908 136.913 C-15.919 127.678 -15.919 118.443 -15.913 109.209 C-15.907 99.681 -15.92 90.154 -15.941 80.626 C-15.959 72.448 -15.965 64.271 -15.961 56.093 C-15.959 51.208 -15.962 46.323 -15.976 41.438 C-15.989 36.842 -15.987 32.247 -15.974 27.651 C-15.971 25.965 -15.974 24.28 -15.982 22.594 C-15.993 20.29 -15.985 17.987 -15.972 15.684 C-15.972 14.395 -15.972 13.107 -15.972 11.779 C-15.508 7.472 -14.384 3.769 -10.948 0.945 C-7.326 -0.048 -3.726 -0.004 0 0 Z M43.266 93.473 C42.754 94.323 42.242 95.174 41.715 96.051 C39.822 99.096 38.139 101.666 35.527 104.113 C31.556 110.071 31.824 117.898 32.777 124.863 C35.249 133.933 43.589 143.237 51.402 148.301 C56.613 150.646 61.92 150.807 67.402 149.301 C70.054 148.07 72.063 146.963 74.402 145.301 C75.052 144.863 75.702 144.424 76.371 143.973 C83.676 138.409 88.358 129.6 90.121 120.652 C90.982 110.391 86.43 102.315 80.402 94.301 C74.765 88.96 69.558 89.12 62.09 89.113 C61.369 89.101 60.647 89.089 59.904 89.076 C47.623 89.043 47.623 89.043 43.266 93.473 Z " fill="#2C7BE5" transform="translate(1297.59765625,119.69921875)" />

    <path d="M0 0 C1.747 -0.017 3.494 -0.044 5.24 -0.082 C7.763 -0.137 10.283 -0.159 12.806 -0.173 C13.586 -0.196 14.365 -0.219 15.168 -0.242 C18.703 -0.228 20.808 0.075 23.689 2.177 C25.951 6.974 25.639 11.401 25.506 16.635 C25.495 17.728 25.485 18.822 25.474 19.948 C25.439 23.437 25.376 26.924 25.31 30.413 C25.255 33.904 25.206 37.396 25.168 40.888 C25.143 43.059 25.108 45.231 25.061 47.402 C25.055 47.894 25.055 47.894 25.022 50.385 C25.005 51.25 24.989 52.114 24.972 53.005 C25.204 55.552 25.901 57.158 27.185 59.35 C30.31 59.288 30.31 59.288 34.185 58.35 C35.56 56.842 35.56 56.842 36.865 54.995 C40.351 50.713 43.975 49.527 49.185 48.1 C50.749 47.641 52.312 47.177 53.873 46.709 C54.614 46.49 55.356 46.271 56.12 46.045 C58.185 45.35 58.185 45.35 61.42 43.709 C65.978 41.469 70.222 41.613 75.185 42.35 C77.693 43.391 79.953 44.646 82.306 45.999 C85.936 47.702 89.528 48.411 93.435 49.225 C99.137 50.47 102.742 51.715 106.037 56.709 C107.185 58.35 107.185 58.35 110.185 60.1 C114.069 63.013 115.574 66.291 117.693 70.596 C119.185 73.35 119.185 73.35 121.161 75.656 C123.332 78.545 124.153 80.734 125.072 84.209 C125.37 85.326 125.669 86.442 125.976 87.592 C126.272 88.75 126.568 89.907 126.873 91.1 C127.027 91.671 127.027 91.671 127.804 94.561 C129.447 100.815 130.758 106.893 131.185 113.35 C131.252 114.295 131.319 115.24 131.388 116.213 C131.524 123.321 130.137 129.543 128.185 136.35 C126.541 142.3 125.634 148.158 124.943 154.299 C123.808 158.867 121.178 161.385 117.873 164.6 C115.61 166.916 113.921 169.105 112.06 171.725 C108.587 176.318 104.63 178.82 99.713 181.713 C96.401 183.858 94.512 186.198 92.185 189.35 C88.907 190.989 85.274 190.535 81.67 190.553 C81.245 190.556 81.245 190.556 79.098 190.57 C77.299 190.58 75.5 190.586 73.701 190.59 C70.96 190.6 68.219 190.631 65.478 190.663 C63.73 190.669 61.981 190.674 60.232 190.678 C59.416 190.691 58.601 190.703 57.76 190.716 C50.342 190.687 45.785 188.088 40.123 183.35 C36.95 180.704 33.895 178.202 30.185 176.35 C29.195 176.68 28.205 177.01 27.185 177.35 C26.342 179.53 26.342 179.53 25.685 182.225 C24.215 188.227 24.215 188.227 21.185 190.35 C18.384 190.649 15.81 190.77 13.01 190.749 C12.207 190.751 11.404 190.754 10.577 190.757 C8.878 190.759 7.179 190.754 5.48 190.741 C2.893 190.725 0.306 190.741 -2.281 190.76 C-3.934 190.758 -5.587 190.754 -7.24 190.749 C-7.625 190.752 -7.625 190.752 -9.571 190.767 C-14.343 190.705 -17.728 190.073 -21.815 187.35 C-24.288 183.778 -24.057 180.385 -24.044 176.138 C-24.045 175.411 -24.045 174.683 -24.046 173.934 C-24.044 171.496 -24.029 169.058 -24.013 166.62 C-24.01 164.872 -24.007 163.124 -24.004 161.376 C-23.995 156.628 -23.973 151.881 -23.947 147.133 C-23.927 143.171 -23.912 139.21 -23.897 135.249 C-23.86 125.905 -23.812 116.562 -23.758 107.218 C-23.702 97.573 -23.669 87.928 -23.646 78.282 C-23.625 70.005 -23.589 61.729 -23.541 53.452 C-23.513 48.506 -23.491 43.561 -23.484 38.616 C-23.477 33.966 -23.451 29.318 -23.41 24.669 C-23.398 22.961 -23.393 21.254 -23.396 19.546 C-23.398 17.217 -23.376 14.89 -23.347 12.562 C-23.341 11.258 -23.335 9.954 -23.328 8.611 C-22.728 4.798 -21.867 3.634 -18.815 1.35 C-12.925 -0.613 -6.18 0.043 0 0 Z M35.123 93.475 C34.483 94.424 33.844 95.373 33.185 96.35 C31.37 98.415 29.522 100.448 27.674 102.483 C24.362 106.638 24.931 111.488 24.873 116.538 C24.844 117.363 24.815 118.189 24.785 119.04 C24.696 127.679 27.778 133.32 33.623 139.6 C34.364 140.41 35.105 141.219 35.869 142.053 C40.958 147.099 45.161 150.125 52.541 150.456 C61.289 150.089 67.079 145.836 72.935 139.6 C79.52 131.545 82.621 123.547 82.068 113.143 C80.873 105.057 75.614 97.48 69.674 92.057 C64.911 88.79 60.019 89.167 54.435 89.163 C53.662 89.15 52.888 89.138 52.092 89.125 C39.376 89.093 39.376 89.093 35.123 93.475 Z " fill="#2C7BE5" transform="translate(1775.814697265625,119.64990234375)" />

    <path d="M0 0 C0.941 -0.013 1.883 -0.026 2.853 -0.039 C3.868 -0.046 4.884 -0.054 5.93 -0.061 C6.977 -0.069 8.024 -0.077 9.103 -0.086 C11.32 -0.1 13.536 -0.11 15.753 -0.118 C19.137 -0.135 22.521 -0.179 25.905 -0.223 C28.059 -0.234 30.214 -0.242 32.368 -0.249 C33.377 -0.266 34.387 -0.284 35.427 -0.302 C42.992 -0.279 46.671 1.519 52.102 6.911 C54.764 10.781 55.494 13.879 56.286 18.427 C57.554 24.714 59.254 29.187 62.911 34.517 C64.792 37.998 65.521 41.455 66.348 45.302 C67.325 49.832 68.14 53.555 71.348 57.052 C75.306 61.484 75.735 66.823 76.809 72.479 C77.921 78.014 79.657 81.809 82.895 86.462 C85.248 90.857 86.085 95.605 87.055 100.466 C88.173 106.001 88.173 106.001 90.348 108.177 C96.631 107.949 96.631 107.949 98.954 105.451 C100.472 102.976 101.345 100.691 102.216 97.923 C102.544 96.903 102.873 95.883 103.212 94.831 C103.546 93.77 103.879 92.708 104.223 91.615 C106.513 84.352 109.05 77.457 112.291 70.564 C113.512 67.807 114.231 65.137 114.786 62.177 C115.746 57.921 117.046 54.667 119.286 50.927 C121.961 46.386 123.237 42.203 124.348 37.115 C125.643 31.214 127.518 26.756 130.903 21.755 C133.267 17.539 134.204 12.96 135.294 8.279 C136.659 4.263 138.56 2.071 142.348 0.177 C143.986 0.072 145.628 0.028 147.27 0.016 C148.294 0.006 149.319 -0.003 150.375 -0.013 C150.931 -0.015 150.931 -0.015 153.743 -0.026 C154.882 -0.032 156.022 -0.038 157.196 -0.043 C159.611 -0.053 162.026 -0.059 164.441 -0.063 C168.135 -0.073 171.829 -0.104 175.522 -0.135 C177.867 -0.142 180.211 -0.147 182.555 -0.151 C183.661 -0.163 184.766 -0.176 185.905 -0.189 C186.422 -0.187 186.422 -0.187 189.039 -0.179 C189.492 -0.181 189.492 -0.181 191.786 -0.19 C194.911 0.258 196.799 1.345 199.348 3.177 C200.793 6.067 200.484 8.57 200.496 11.8 C200.499 12.488 200.503 13.176 200.507 13.886 C200.518 16.203 200.522 18.521 200.525 20.838 C200.532 22.496 200.538 24.153 200.545 25.81 C200.563 30.32 200.573 34.831 200.582 39.341 C200.587 42.158 200.593 44.974 200.599 47.791 C200.618 56.599 200.632 65.407 200.641 74.216 C200.65 84.391 200.677 94.566 200.717 104.742 C200.747 112.601 200.762 120.461 200.765 128.321 C200.768 133.018 200.777 137.715 200.802 142.411 C200.825 146.83 200.829 151.248 200.819 155.666 C200.819 157.288 200.825 158.91 200.839 160.531 C200.856 162.746 200.849 164.959 200.836 167.173 C200.839 168.412 200.841 169.651 200.843 170.928 C200.253 174.802 199.118 176.449 196.348 179.177 C192.663 180.405 189.231 180.358 185.391 180.38 C184.611 180.386 183.83 180.392 183.026 180.397 C181.374 180.407 179.723 180.413 178.071 180.417 C175.556 180.427 173.041 180.458 170.526 180.49 C168.919 180.496 167.311 180.501 165.704 180.505 C164.957 180.517 164.21 180.53 163.44 180.543 C158.671 180.522 155.359 179.787 151.348 177.177 C149.468 173.17 149.257 170.04 149.819 165.753 C150.502 159.494 150.391 153.308 150.262 147.021 C150.241 145.797 150.22 144.573 150.198 143.311 C150.152 140.743 150.103 138.175 150.052 135.607 C149.973 131.661 149.906 127.716 149.841 123.771 C149.794 121.271 149.748 118.771 149.7 116.271 C149.68 115.088 149.66 113.904 149.64 112.685 C149.617 111.596 149.593 110.508 149.57 109.386 C149.551 108.426 149.532 107.466 149.513 106.476 C149.348 104.177 149.348 104.177 148.348 102.177 C144.968 102.715 141.661 103.32 138.348 104.177 C138.239 104.787 138.239 104.787 137.684 107.876 C135.985 116.855 133.972 124.547 129.786 132.732 C127.996 137.021 127.183 141.246 126.348 145.802 C125.104 152.556 123.397 157.782 119.731 163.677 C117.76 167.241 116.933 170.903 116.087 174.865 C115.209 177.613 114.696 178.494 112.348 180.177 C109.749 180.475 107.393 180.598 104.794 180.575 C104.424 180.577 104.424 180.577 102.556 180.584 C100.994 180.586 99.432 180.581 97.87 180.568 C95.489 180.552 93.109 180.568 90.727 180.587 C89.208 180.585 87.688 180.581 86.169 180.575 C85.814 180.578 85.814 180.578 84.022 180.594 C79.631 180.532 76.803 179.932 73.348 177.177 C72.11 175.406 72.11 175.406 71.251 173.439 C70.926 172.708 70.602 171.978 70.268 171.225 C69.944 170.446 69.62 169.667 69.286 168.865 C68.939 168.059 68.591 167.253 68.234 166.422 C65.771 160.565 63.936 154.668 62.337 148.517 C61.297 145.003 59.932 141.822 58.411 138.49 C55.632 132.264 53.89 126.06 52.25 119.454 C50.812 113.739 49.118 108.173 47.161 102.615 C46.911 101.894 46.661 101.174 46.403 100.432 C45.346 97.494 44.583 95.411 42.348 93.177 C39.786 93.427 39.786 93.427 37.348 94.177 C35.842 97.189 36.253 100.277 36.298 103.577 C36.305 104.339 36.311 105.102 36.317 105.888 C36.331 107.547 36.347 109.207 36.365 110.866 C36.392 113.493 36.409 116.12 36.424 118.747 C36.467 126.217 36.515 133.687 36.595 141.157 C36.644 145.724 36.673 150.291 36.689 154.858 C36.699 156.598 36.716 158.339 36.741 160.079 C36.775 162.516 36.783 164.952 36.787 167.389 C36.795 167.748 36.795 167.748 36.835 169.564 C36.814 173.09 36.403 175.087 34.556 178.125 C31.345 181.11 28.236 180.859 24.075 180.771 C23.274 180.771 22.472 180.771 21.647 180.771 C19.954 180.766 18.261 180.748 16.568 180.719 C13.989 180.677 11.412 180.678 8.833 180.685 C7.184 180.674 5.536 180.661 3.887 180.646 C3.122 180.646 2.356 180.645 1.567 180.645 C-3.376 180.537 -7.957 179.872 -11.652 176.177 C-11.757 173.984 -11.791 171.787 -11.799 169.592 C-11.802 168.896 -11.806 168.199 -11.81 167.482 C-11.821 165.131 -11.825 162.78 -11.829 160.43 C-11.835 158.751 -11.842 157.073 -11.849 155.395 C-11.866 150.822 -11.876 146.25 -11.885 141.677 C-11.89 138.823 -11.896 135.969 -11.902 133.115 C-11.921 124.192 -11.936 115.268 -11.944 106.345 C-11.954 96.032 -11.98 85.719 -12.02 75.405 C-12.05 67.443 -12.065 59.48 -12.069 51.517 C-12.071 46.757 -12.08 41.998 -12.105 37.238 C-12.128 32.76 -12.133 28.283 -12.122 23.806 C-12.122 22.161 -12.128 20.516 -12.142 18.872 C-12.16 16.628 -12.153 14.386 -12.139 12.143 C-12.142 10.887 -12.144 9.631 -12.147 8.337 C-11.559 4.585 -10.647 3.436 -7.652 1.177 C-4.8 0.227 -2.962 0.035 0 0 Z " fill="#2C7BE5" transform="translate(534.651611328125,129.822998046875)" />

    <path d="M0 0 C1.636 0.685 3.267 1.383 4.895 2.09 C12.407 5.063 20.474 6.886 28.422 8.238 C32.427 8.986 34.943 10.194 37.797 13.238 C37.797 13.898 37.797 14.558 37.797 15.238 C38.519 15.506 39.241 15.775 39.984 16.051 C45.757 18.488 48.72 21.1 52.27 26.203 C53.797 28.238 53.797 28.238 55.828 30.102 C58.252 32.732 59.079 35.114 60.234 38.488 C61.972 43.281 63.85 47.39 66.781 51.555 C69.418 55.926 68.99 61.001 69.035 65.949 C69.043 66.795 69.051 67.641 69.06 68.512 C69.073 70.299 69.084 72.086 69.092 73.873 C69.104 75.696 69.124 77.52 69.154 79.343 C69.196 81.983 69.212 84.622 69.223 87.262 C69.24 88.071 69.258 88.881 69.276 89.715 C69.255 95.061 68.228 97.931 64.797 102.238 C64.098 103.492 63.426 104.761 62.797 106.051 C62.462 106.729 62.127 107.407 61.781 108.105 C61.124 109.529 60.509 110.973 59.938 112.434 C54.944 125.005 43.714 134.432 31.758 140.227 C27.662 142.213 24.326 144.314 20.797 147.238 C17.98 148.177 16.19 148.38 13.269 148.415 C12.811 148.422 12.811 148.422 10.496 148.454 C10.003 148.458 10.003 148.458 7.504 148.477 C6.484 148.485 5.464 148.493 4.413 148.501 C2.252 148.515 0.091 148.526 -2.071 148.533 C-5.361 148.551 -8.65 148.595 -11.939 148.639 C-14.042 148.649 -16.144 148.657 -18.246 148.664 C-19.223 148.682 -20.201 148.699 -21.208 148.717 C-29.533 148.691 -34.67 146.181 -41.203 141.238 C-42.769 140.61 -44.354 140.028 -45.953 139.488 C-51.468 137.343 -55.012 134.334 -59.203 130.238 C-59.984 129.576 -60.765 128.913 -61.57 128.23 C-75.145 116.094 -81.235 99.457 -82.366 81.681 C-83.359 62.413 -79.142 41.901 -66.016 26.988 C-64.761 25.722 -63.493 24.469 -62.203 23.238 C-61.358 22.31 -60.512 21.382 -59.641 20.426 C-57.616 18.608 -55.983 17.466 -53.641 16.176 C-50.203 14.238 -50.203 14.238 -48.391 12.176 C-44.858 9.047 -40.716 8.39 -36.203 7.238 C-33.82 6.626 -31.437 6.012 -29.055 5.394 C-27.394 4.965 -25.732 4.543 -24.068 4.127 C-20.365 3.18 -16.855 2.168 -13.359 0.609 C-8.703 -1.413 -4.749 -1.642 0 0 Z M-23.703 51.613 C-31.231 59.517 -31.403 65.635 -31.453 76.051 C-31.474 77.119 -31.494 78.187 -31.516 79.287 C-31.551 86.375 -31.323 91.831 -26.336 97.277 C-26.005 97.539 -26.005 97.539 -24.328 98.863 C-21.849 100.879 -19.675 102.791 -17.453 105.113 C-14.168 108.216 -12.318 108.175 -7.891 108.426 C0.446 108.002 4.15 105.443 9.715 99.461 C11.797 97.238 11.797 97.238 14.734 94.863 C19.995 88.167 18.95 79.025 18.672 70.926 C18.65 70.066 18.629 69.206 18.607 68.32 C18.322 62.835 17.32 59.65 13.797 55.238 C13.539 54.805 13.539 54.805 12.234 52.613 C2.645 43.27 -13.426 43.559 -23.703 51.613 Z " fill="#2C7BE5" transform="translate(1191.203125,161.76171875)" />

    <path d="M0 0 C5.223 2.277 10.157 3.185 15.854 3.663 C21.374 4.878 24.79 9.411 28.659 13.28 C29.818 14.289 30.985 15.289 32.159 16.28 C37.921 21.166 42.616 25.728 45.597 32.718 C47.174 36.407 48.994 39.247 51.659 42.28 C53.184 45.33 52.895 47.923 52.659 51.28 C51.118 53.38 50.213 54.168 47.644 54.688 C46.875 54.703 46.107 54.717 45.315 54.732 C44.877 54.743 44.877 54.743 42.664 54.8 C42.192 54.803 42.192 54.803 39.804 54.819 C38.828 54.832 37.853 54.844 36.847 54.857 C34.78 54.876 32.713 54.888 30.646 54.891 C27.5 54.905 24.357 54.972 21.212 55.042 C19.201 55.054 17.19 55.064 15.179 55.069 C14.245 55.096 13.311 55.123 12.35 55.15 C6.003 55.085 2.86 53.559 -1.619 49.058 C-2.187 48.472 -2.755 47.885 -3.341 47.28 C-7.801 43.549 -12.329 40.334 -18.341 40.28 C-24.111 41.738 -29.808 44.427 -34.341 48.28 C-36.347 52.929 -36.661 57.317 -36.677 62.312 C-36.683 63.066 -36.69 63.82 -36.697 64.597 C-36.707 66.183 -36.712 67.77 -36.711 69.357 C-36.716 71.773 -36.752 74.188 -36.79 76.604 C-36.796 78.153 -36.8 79.701 -36.802 81.249 C-36.816 81.965 -36.83 82.681 -36.845 83.418 C-36.79 89.581 -34.52 93.089 -30.271 97.362 C-29.592 97.933 -28.914 98.504 -28.216 99.093 C-27.533 99.677 -26.849 100.261 -26.146 100.862 C-22.167 103.988 -18.235 103.862 -13.341 103.28 C-8.812 100.97 -5.26 97.515 -1.563 94.062 C4.5 89.203 8.841 87.674 16.479 87.784 C16.89 87.783 16.89 87.783 18.969 87.78 C20.696 87.781 22.422 87.793 24.148 87.814 C26.784 87.843 29.418 87.834 32.054 87.821 C33.737 87.828 35.421 87.836 37.104 87.847 C37.496 87.845 37.496 87.845 39.479 87.838 C44.035 87.916 47.048 88.433 50.659 91.28 C52.287 94.018 52.65 95.855 52.722 99.03 C51.381 103.13 49.079 105.638 46.343 108.925 C44.649 111.295 44.016 112.979 43.347 115.78 C41.616 122.034 36.471 125.305 31.659 129.28 C31.332 129.634 31.332 129.634 29.675 131.425 C27.309 133.603 25.413 134.244 22.347 135.155 C17.685 136.715 14.641 138.529 11.194 142.011 C8.309 144.397 4.918 144.408 1.293 144.441 C0.866 144.446 0.866 144.446 -1.297 144.471 C-1.756 144.473 -1.756 144.473 -4.075 144.483 C-4.551 144.486 -4.551 144.486 -6.96 144.501 C-8.974 144.51 -10.988 144.517 -13.002 144.521 C-16.066 144.53 -19.129 144.561 -22.192 144.593 C-24.153 144.599 -26.114 144.605 -28.075 144.608 C-28.984 144.621 -29.892 144.633 -30.829 144.646 C-39.135 144.617 -44.884 142.695 -51.341 137.28 C-53.176 136.407 -55.032 135.575 -56.903 134.78 C-72.197 127.228 -81.296 112.464 -86.841 96.78 C-91.741 81.352 -92.648 56.109 -85.653 41.218 C-84.897 39.897 -84.124 38.585 -83.341 37.28 C-82.846 36.356 -82.351 35.432 -81.841 34.479 C-76.585 24.904 -70.239 16.833 -61.165 10.632 C-59.341 9.28 -59.341 9.28 -57.731 7.272 C-54.072 4.223 -49.998 3.728 -45.403 2.78 C-43.499 2.363 -41.595 1.943 -39.692 1.519 C-38.771 1.313 -37.85 1.108 -36.9 0.896 C-33.61 0.105 -30.477 -0.931 -27.278 -2.032 C-17.136 -5.196 -9.602 -4.262 0 0 Z " fill="#2C7BE5" transform="translate(927.3408203125,165.7197265625)" />

    <path d="M0 0 C4.71 1.868 9.291 2.188 14.32 2.617 C18.412 3.633 19.99 5.204 22.625 8.438 C22.79 8.933 22.79 8.933 23.625 11.438 C24.388 11.726 25.151 12.015 25.938 12.312 C31.31 14.562 33.204 19.474 35.543 24.469 C36.63 26.447 37.798 27.776 39.375 29.375 C42.036 32.997 42.155 34.933 42.094 39.289 C41.477 42.115 40.679 43.382 38.625 45.438 C35.566 45.939 35.566 45.939 31.832 45.934 C31.167 45.935 30.502 45.937 29.817 45.938 C28.409 45.936 27.001 45.925 25.594 45.904 C23.462 45.875 21.333 45.883 19.201 45.896 C9.569 45.883 2.367 45.183 -5.25 38.812 C-9.925 34.952 -12.649 34.234 -18.688 34.188 C-20.004 34.162 -21.32 34.136 -22.676 34.109 C-26.511 34.45 -28.399 35.039 -31.375 37.438 C-32.151 41.234 -31.399 43.821 -29.688 47.188 C-27.182 50.709 -26.366 51.246 -22.375 52.438 C-20.358 52.603 -18.335 52.702 -16.312 52.75 C-9.234 53.191 -3.711 55.387 2.625 58.438 C7.136 60.57 11.187 61.759 16.062 62.688 C22.687 64.143 25.983 66.688 30.625 71.438 C32.661 73.065 34.703 74.68 36.766 76.273 C42.73 83.215 43.209 90.675 43 99.5 C42.999 100.537 42.997 101.574 42.996 102.643 C42.838 116.505 42.838 116.505 39.039 121.539 C38.449 122.042 37.858 122.545 37.25 123.062 C34.778 125.273 33.567 126.549 32 129.562 C28.636 133.635 24.678 134.505 19.77 136.207 C15.867 137.734 13.599 139.543 10.625 142.438 C8.283 143.609 6.854 143.582 4.242 143.615 C3.788 143.621 3.788 143.621 1.489 143.653 C0.503 143.661 -0.484 143.668 -1.5 143.676 C-2.517 143.684 -3.533 143.692 -4.581 143.7 C-6.74 143.714 -8.898 143.725 -11.057 143.733 C-14.334 143.75 -17.61 143.794 -20.887 143.838 C-22.987 143.848 -25.087 143.857 -27.188 143.863 C-27.673 143.872 -27.673 143.872 -30.127 143.916 C-39.743 143.886 -46.487 140.696 -54.375 135.438 C-56.034 134.813 -57.702 134.21 -59.375 133.625 C-63.848 131.92 -66.117 130.007 -68.945 126.203 C-70.454 124.34 -71.992 123.199 -73.938 121.812 C-78.284 118.283 -79.584 113.535 -81.332 108.363 C-82.375 105.438 -82.375 105.438 -84.375 102.438 C-84.188 99.375 -84.188 99.375 -83.375 96.438 C-76.665 91.964 -67.717 93.218 -59.938 93.188 C-59.289 93.177 -59.289 93.177 -56.006 93.125 C-43.97 93.076 -43.97 93.076 -38.375 96.438 C-37.004 98.074 -35.674 99.744 -34.375 101.438 C-31.798 103.564 -29.092 105.495 -26.375 107.438 C-26.037 107.705 -26.037 107.705 -24.328 109.059 C-21.316 111.185 -19.043 111.376 -15.375 111.438 C-9.587 109.677 -5.542 106.546 -2.375 101.438 C-2.332 98.504 -2.332 98.504 -3.375 95.438 C-5.682 93.677 -7.561 92.496 -10.125 91.25 C-10.802 90.908 -11.48 90.565 -12.178 90.212 C-19.529 86.645 -26.904 84.887 -35.027 84.07 C-43.659 83.197 -49.799 81.286 -57.289 77.137 C-59.776 75.767 -62.038 74.823 -64.688 73.875 C-70.592 70.954 -74.652 63.285 -77.375 57.438 C-79.52 51.086 -79.776 45.066 -79.375 38.438 C-79.33 37.634 -79.285 36.831 -79.238 36.004 C-77.792 24.566 -69.027 13.691 -60.508 6.418 C-55.191 3.057 -49.554 2.075 -43.482 0.906 C-39.899 0.109 -36.471 -1.131 -33 -2.312 C-21.453 -6.051 -11.097 -5.137 0 0 Z " fill="#2C7BE5" transform="translate(2008.375,166.5625)" />

    <path d="M0 0 C1.997 -0.01 3.994 -0.041 5.991 -0.072 C18.591 -0.123 18.591 -0.123 23.768 3.24 C26.379 6.833 27.148 9.368 27.187 13.781 C27.204 14.883 27.221 15.985 27.238 17.12 C27.241 18.319 27.245 19.518 27.248 20.754 C27.263 22.024 27.278 23.295 27.294 24.604 C27.334 28.081 27.356 31.558 27.373 35.035 C27.394 38.678 27.429 42.32 27.461 45.963 C27.514 52.079 27.554 58.196 27.586 64.312 C27.625 71.379 27.684 78.446 27.755 85.513 C27.816 91.585 27.865 97.657 27.903 103.73 C27.926 107.355 27.954 110.979 27.992 114.604 C28.033 118.645 28.05 122.685 28.064 126.727 C28.08 127.926 28.095 129.125 28.111 130.36 C28.111 131.462 28.111 132.564 28.111 133.699 C28.114 134.177 28.114 134.177 28.13 136.593 C27.613 140.375 26.126 143.204 23.073 145.534 C19.702 146.567 16.389 146.545 12.897 146.541 C12.138 146.545 11.378 146.55 10.596 146.554 C8.993 146.56 7.39 146.56 5.787 146.556 C3.342 146.553 0.898 146.576 -1.546 146.602 C-3.107 146.604 -4.667 146.605 -6.228 146.604 C-6.592 146.608 -6.592 146.608 -8.432 146.631 C-12.869 146.591 -15.706 145.979 -19.232 143.24 C-20.51 140.685 -20.361 138.884 -20.366 136.022 C-20.37 134.916 -20.374 133.81 -20.379 132.67 C-20.378 131.451 -20.378 130.232 -20.377 128.975 C-20.381 127.696 -20.384 126.416 -20.387 125.097 C-20.396 121.581 -20.399 118.064 -20.399 114.547 C-20.4 111.613 -20.404 108.678 -20.407 105.743 C-20.416 98.818 -20.418 91.893 -20.417 84.968 C-20.417 77.824 -20.427 70.68 -20.443 63.537 C-20.456 57.405 -20.461 51.273 -20.461 45.142 C-20.461 41.479 -20.463 37.816 -20.474 34.154 C-20.485 30.067 -20.481 25.98 -20.475 21.893 C-20.48 20.68 -20.486 19.467 -20.492 18.217 C-20.488 17.102 -20.483 15.988 -20.479 14.839 C-20.48 13.873 -20.48 12.907 -20.481 11.911 C-20.138 8.229 -19.148 5.356 -16.794 2.49 C-12.239 -1.154 -5.503 0.016 0 0 Z " fill="#2C7BE5" transform="translate(787.23193359375,163.759765625)" />

    <path d="M0 0 C0.802 0.015 1.605 0.029 2.431 0.044 C4.123 0.08 5.814 0.124 7.504 0.176 C10.085 0.25 12.664 0.281 15.246 0.309 C16.893 0.349 18.54 0.392 20.188 0.438 C20.571 0.44 20.571 0.44 22.514 0.454 C26.547 0.617 28.396 1.088 31.557 3.676 C34.835 7.818 34.744 10.813 34.751 15.925 C34.757 16.717 34.762 17.509 34.767 18.325 C34.778 20.048 34.786 21.772 34.793 23.495 C34.805 26.223 34.824 28.95 34.846 31.678 C34.908 39.435 34.962 47.192 34.995 54.948 C35.016 59.691 35.051 64.433 35.096 69.175 C35.11 70.982 35.119 72.789 35.122 74.596 C35.127 77.127 35.15 79.656 35.177 82.187 C35.174 82.932 35.171 83.678 35.168 84.446 C35.283 91.631 38.197 95.13 43.156 100 C43.941 100.779 44.726 101.557 45.535 102.359 C49.343 105.857 52.905 105.467 57.844 105.5 C58.595 105.521 59.347 105.541 60.121 105.562 C65.03 105.597 68.39 105.041 72.594 102.25 C75.113 99.656 75.113 99.656 77.406 96.75 C78.176 95.791 78.945 94.832 79.738 93.844 C82.76 89.619 82.709 86.443 82.676 81.367 C82.672 80.671 82.669 79.974 82.666 79.257 C82.659 77.744 82.65 76.232 82.638 74.719 C82.621 72.318 82.611 69.916 82.602 67.515 C82.578 60.686 82.543 53.857 82.498 47.029 C82.471 42.849 82.454 38.67 82.443 34.491 C82.437 32.906 82.427 31.32 82.413 29.735 C82.23 8.712 82.23 8.712 86.344 2.688 C92.711 -1.38 101.603 0.225 108.871 0.437 C111.153 0.5 113.434 0.541 115.717 0.582 C117.177 0.621 118.637 0.661 120.098 0.703 C120.757 0.719 120.757 0.719 124.092 0.802 C127.808 1.277 129.715 1.876 132.594 4.25 C134.404 7.902 134.846 10.867 134.854 14.918 C134.862 16.048 134.869 17.178 134.876 18.343 C134.873 19.573 134.871 20.803 134.868 22.071 C134.874 23.374 134.879 24.677 134.884 26.019 C134.897 29.585 134.898 33.151 134.895 36.717 C134.894 39.694 134.899 42.671 134.904 45.649 C134.915 52.67 134.915 59.692 134.909 66.713 C134.903 73.96 134.916 81.206 134.937 88.453 C134.955 94.675 134.961 100.898 134.957 107.121 C134.956 110.837 134.958 114.553 134.972 118.269 C134.987 122.409 134.978 126.548 134.966 130.688 C134.974 131.922 134.981 133.157 134.989 134.428 C134.982 135.553 134.975 136.677 134.968 137.836 C134.968 138.815 134.968 139.794 134.968 140.802 C134.531 143.658 133.89 144.551 131.594 146.25 C129.589 146.631 129.589 146.631 127.278 146.638 C126.41 146.648 125.542 146.657 124.648 146.667 C124.181 146.664 124.181 146.664 121.816 146.648 C120.854 146.651 119.891 146.654 118.899 146.657 C116.862 146.659 114.825 146.654 112.788 146.641 C109.672 146.625 106.556 146.641 103.439 146.66 C101.461 146.658 99.482 146.654 97.504 146.648 C96.572 146.655 95.639 146.661 94.678 146.667 C88.241 146.597 88.241 146.597 85.04 144.88 C83.138 142.736 82.561 140.825 81.844 138.062 C81.601 137.161 81.359 136.26 81.109 135.332 C80.939 134.645 80.769 133.958 80.594 133.25 C76.23 133.861 72.947 135.46 69.094 137.562 C67.99 138.157 66.887 138.751 65.75 139.363 C62.594 141.25 62.594 141.25 59.938 143.418 C54.35 147.785 46.719 146.472 39.95 146.49 C37.733 146.5 35.517 146.531 33.301 146.562 C31.88 146.569 30.46 146.574 29.039 146.578 C28.397 146.583 28.397 146.583 25.149 146.606 C19.026 145.993 15.233 143.026 10.594 139.25 C9.139 138.328 7.68 137.412 6.219 136.5 C-1.665 131.183 -5.741 125.177 -9.656 116.625 C-9.986 115.916 -10.315 115.206 -10.655 114.476 C-16.378 101.276 -16.861 88.093 -16.805 73.973 C-16.807 72.149 -16.81 70.324 -16.813 68.5 C-16.818 64.706 -16.811 60.911 -16.797 57.117 C-16.78 52.266 -16.79 47.416 -16.808 42.565 C-16.819 38.81 -16.815 35.055 -16.808 31.3 C-16.806 29.511 -16.808 27.722 -16.815 25.933 C-16.823 23.436 -16.811 20.939 -16.794 18.442 C-16.801 17.713 -16.807 16.984 -16.813 16.233 C-16.75 11.127 -15.717 7.709 -13.406 3.25 C-9.375 -0.333 -5.144 -0.145 0 0 Z " fill="#2C7BE5" transform="translate(1475.40625,163.75)" />

    <path d="M0 0 C0.357 0.008 0.357 0.008 2.164 0.05 C3.674 0.087 5.185 0.128 6.695 0.171 C8.993 0.234 11.29 0.275 13.588 0.316 C15.059 0.355 16.529 0.396 18 0.438 C18.681 0.447 19.363 0.457 20.065 0.466 C24.618 0.627 27.822 1.598 31.699 3.984 C34.137 8.129 34.74 13.299 35.699 17.984 C38.604 18.874 39.513 19.047 42.512 18.047 C45.483 16.124 46.542 14.967 48.574 12.234 C52.018 8.073 55.855 6.081 60.699 3.922 C61.376 3.611 62.052 3.3 62.75 2.979 C67.4 1.032 70.676 0.694 75.699 1.984 C82.348 8.633 79.915 24.688 79.949 33.297 C79.97 34.641 79.991 35.986 80.012 37.33 C80.014 37.972 80.014 37.972 80.027 41.223 C80.037 42.378 80.046 43.533 80.056 44.724 C79.652 48.412 78.605 50.819 76.699 53.984 C71.194 57.168 63.321 56.025 57.219 55.926 C51.196 56.026 45.408 57.081 39.699 58.984 C38.86 61.572 38.207 64.024 37.637 66.672 C37.315 68.093 36.991 69.514 36.664 70.934 C36.526 71.566 36.388 72.199 36.246 72.85 C35.699 74.984 35.699 74.984 34.675 77.728 C33.663 81.104 33.481 83.706 33.536 87.218 C33.549 88.429 33.562 89.64 33.575 90.888 C33.598 92.182 33.621 93.475 33.645 94.809 C33.658 96.16 33.671 97.512 33.682 98.864 C33.731 104.585 33.802 110.305 33.891 116.026 C33.945 119.534 33.979 123.042 34.001 126.55 C34.019 128.533 34.06 130.516 34.101 132.498 C34.108 133.7 34.115 134.901 34.122 136.139 C34.129 136.669 34.129 136.669 34.167 139.348 C33.699 141.984 33.699 141.984 31.86 143.787 C27.451 146.23 23.358 146.161 18.453 146.188 C17.646 146.193 16.838 146.199 16.006 146.205 C14.299 146.214 12.592 146.221 10.885 146.225 C8.275 146.234 5.666 146.265 3.057 146.297 C1.397 146.303 -0.262 146.309 -1.922 146.312 C-2.701 146.325 -3.48 146.337 -4.283 146.35 C-7.524 146.337 -9.885 146.21 -12.762 144.651 C-15.503 141.682 -15.427 138.755 -15.434 134.907 C-15.439 133.858 -15.443 132.808 -15.447 131.726 C-15.447 130.574 -15.447 129.423 -15.446 128.236 C-15.449 127.023 -15.453 125.809 -15.456 124.559 C-15.464 121.228 -15.467 117.897 -15.468 114.566 C-15.469 112.482 -15.471 110.398 -15.474 108.314 C-15.483 101.034 -15.487 93.754 -15.486 86.474 C-15.485 79.705 -15.496 72.936 -15.512 66.167 C-15.525 60.345 -15.53 54.523 -15.53 48.701 C-15.529 45.229 -15.532 41.757 -15.543 38.285 C-15.554 34.403 -15.55 30.521 -15.544 26.638 C-15.549 25.501 -15.555 24.363 -15.561 23.191 C-15.496 6.697 -15.496 6.697 -11.915 2.272 C-8.312 -0.602 -4.349 -0.111 0 0 Z " fill="#2C7BE5" transform="translate(1653.30078125,164.015625)" />

    <path d="M0 0 C3.013 5.237 3.075 11.926 3.688 17.812 C5.535 18.449 5.535 18.449 7.688 18.812 C10.125 16.625 10.125 16.625 12.688 13.812 C13.513 13.173 14.338 12.534 15.188 11.875 C17.688 9.812 17.688 9.812 19.824 6.863 C22.927 3.09 26.384 2.123 31 0.938 C31.721 0.726 32.442 0.515 33.186 0.297 C38.138 -1.071 42.552 -1.541 47.688 -1.188 C50.791 1.716 51.643 4.729 51.817 8.948 C51.817 9.582 51.817 9.582 51.82 12.789 C51.821 13.474 51.822 14.158 51.823 14.864 C51.824 16.315 51.822 17.765 51.818 19.216 C51.813 21.409 51.818 23.601 51.824 25.793 C51.84 44.133 51.84 44.133 49.387 49.836 C44.889 53.13 39.923 52.475 34.5 52.438 C16.458 52.438 16.458 52.438 10.602 57.68 C10.176 58.342 9.751 59.005 9.312 59.688 C8.872 60.345 8.431 61.002 7.977 61.68 C7.551 62.384 7.126 63.087 6.688 63.812 C6.18 64.523 5.673 65.234 5.151 65.967 C3.341 69.487 3.114 72.604 2.988 76.48 C2.971 76.867 2.971 76.867 2.885 78.823 C2.415 91.411 2.721 104.042 2.934 116.635 C2.989 120.023 3.018 123.412 3.043 126.801 C3.067 127.834 3.091 128.867 3.115 129.932 C3.131 134.174 3.027 137.101 1.185 140.966 C-2.313 143.553 -5.438 143.477 -9.621 143.371 C-10.425 143.369 -11.229 143.366 -12.057 143.364 C-13.754 143.354 -15.451 143.333 -17.148 143.3 C-19.738 143.25 -22.326 143.238 -24.916 143.232 C-26.568 143.218 -28.219 143.202 -29.871 143.184 C-30.642 143.178 -31.413 143.173 -32.207 143.167 C-37.217 143.057 -41.276 142.859 -44.925 139.192 C-46.859 135.875 -46.68 133.346 -46.669 129.517 C-46.671 128.785 -46.673 128.052 -46.675 127.298 C-46.678 124.861 -46.659 122.425 -46.641 119.988 C-46.638 118.265 -46.637 116.541 -46.636 114.818 C-46.632 110.206 -46.608 105.594 -46.579 100.982 C-46.557 97.183 -46.545 93.385 -46.532 89.586 C-46.495 78.482 -46.422 67.378 -46.332 56.274 C-46.314 53.955 -46.297 51.636 -46.28 49.317 C-46.227 42.049 -46.157 34.781 -46.046 27.514 C-46.016 25.475 -45.989 23.435 -45.967 21.395 C-45.935 18.63 -45.883 15.866 -45.824 13.102 C-45.821 12.71 -45.821 12.71 -45.805 10.73 C-45.682 6.294 -45.214 3.246 -42.312 -0.188 C-38.595 -2.273 -35.159 -2.492 -30.945 -2.637 C-29.73 -2.68 -28.514 -2.723 -27.262 -2.768 C-26 -2.803 -24.738 -2.838 -23.438 -2.875 C-22.183 -2.922 -20.929 -2.969 -19.637 -3.018 C-3.733 -3.531 -3.733 -3.531 0 0 Z " fill="#2C7BE5" transform="translate(1048.3125,167.1875)" />

  </g>
</svg>
